<svg id="Layer_1" data-name="Layer 1" xmlns="http://www.w3.org/2000/svg" viewBox="0 0 6853.86 1080"><defs><style>.cls-1{fill:#413d31;}.cls-2{fill:#f2bb26;}.cls-3{fill:#4d4d4d;}.cls-4{fill:#f5d268;}.cls-5{fill:#fcf0c5;}.cls-6{fill:#070707;}.cls-7{fill:#f1b81d;}.cls-8{fill:#fdfdfd;}.cls-9{fill:#414141;}.cls-10{fill:#382b27;}.cls-11{fill:#888069;}.cls-12{fill:#877d62;}.cls-13{fill:#c2000b;}</style></defs><path class="cls-1" d="M6777.45,132.44c18.52,9.26,32.35,23.53,43.1,40.92,4.65,7.53,9.39,15.19,9.83,24.48,1.09,1.17.44,3.1,1.8,4.16V414q-71.43-.12-142.86-.26c-12.93,0-12.29,2.42-12.27-12.24,0-16.31.12-32.63.19-48.95,4.18-4.51,9.78-3.61,15-3.65,23.61-.17,47.22,0,70.84-.1,13-.05,13.88-.79,13.9-13.29.07-59.86,0-119.73.13-179.6C6777.11,148.1,6773,140.18,6777.45,132.44Z"/><path class="cls-2" d="M40.18,188c2.75-2.12,1.43-6.1,3.82-8.39,4.73,5.06,3.59,11.29,2.81,17.09-1.3,9.63-1.39,19.26-1.39,28.93q0,286-.09,571.91c0,9.32,1.42,18.59.57,27.91-3.69,6.59-4.14.32-5.72-1.45Z"/><path class="cls-3" d="M2684.18,1044h-100a2.34,2.34,0,0,1,1.07-3.25,512.74,512.74,0,0,1,97.86,0A2.37,2.37,0,0,1,2684.18,1044Z"/><path class="cls-4" d="M40.18,824l3.89,4.2c2.42,2.75,2.47,5.45-.17,8.09L42.19,834c-1.39-1-.66-3-2-4Z"/><path class="cls-5" d="M40.18,830c1.76.78,2,2.31,2,4h-2Z"/><path class="cls-6" d="M2608.24,854.29c20.18-8.07,28.09-24.72,31.74-44.67,2.61-14.21,2.34-28.51,2.34-42.82q0-349.38,0-698.77c0-12.42,0-12.42,12.87-12.42q75,0,150,0c3.63,0,7.33-.67,10.89.65,2.47,17.86.69,35.8,1.07,53.7,4.8,229.51.63,459.05,2.2,688.57.3,43.64-15.65,80.68-43.64,112.89-40.36,46.43-92.07,69.47-153.19,73.95-34.75,2.56-69.25,2.12-103.62-2.64-31.12-4.32-59.6-16.4-86.08-33.21-3.77-2.39-5.89-6.3-9-9.27-20.14-16-37.78-34.15-51.05-56.47a173.39,173.39,0,0,1-24.33-78.08c-.38-5.64-.41-11.32-.41-17q0-360.78,0-721.57c0-1.33,0-2.66,0-4-.15-7.95-.15-7.6,7.64-7.59q79.95,0,159.9,0c7,0,7.08.12,7.1,7,0,17.66,0,35.31-.06,53,3.4,6.51,2.81,13.57,2.81,20.54q0,318.71-.06,637.42a155.51,155.51,0,0,0,5,39.52c7,26.74,21.72,39.64,49.14,41.76C2588.92,855.57,2598.65,856,2608.24,854.29Z"/><path class="cls-7" d="M43.9,836.29c.06-2.7.11-5.39.17-8.09-3.84-33.13-1.72-66.4-1.77-99.59q-.39-256.67-.23-513.31c0-12,3.69-23.67,1.93-35.69.85-27.12,10.35-51.2,26.23-72.85C87,83.91,109.78,69.92,136.75,62c17.13-5,34.57-6.38,52.26-6.37q132.42,0,264.85,0c13.28,0,11.93-1,12,11.6q.18,25,.35,50c3,4,3.12,8.66,3.13,13.35,0,21.32.13,42.63,0,63.94-.12,14.41-2.32,16.64-17.07,16.67-64.94.14-129.88,0-194.81.07-29.28,0-34.07,4.87-34.07,34.32V775c0,28.76,4.79,33.52,33.64,33.8,5.29,0,10.74-.59,15.47,2.72,23.64.12,47.28.11,70.92.45,5.5.08,6.92-2.28,6.6-7.16-.25-3.64-.05-7.32-.05-11V509.1c0-2.33-.19-4.68,0-7,.45-4.77-1.58-6.46-6.33-6.37-11.65.22-23.31.12-35,0-8.16-.06-8.29-.14-8.3-8.27q-.08-63.94,0-127.89c0-7.55.17-7.72,7.82-7.72q101.91-.07,203.82,0c7.64,0,7.74.17,7.82,7.73.18,18,.26,36,.38,53.94,4.21,5.56,3.12,12.09,3.12,18.32q.09,209.82,0,419.63c0,33.31.09,66.61,0,99.91-.06,15.79-2,17.75-18,17.76q-160.86.1-321.72,0c-21.44,0-41.23-6.72-60.27-16.11-4.37-2.16-6.79-6.18-10.25-9.18-12-9.94-24.26-19.57-34.3-31.79C62.3,892,51.35,869.18,44.63,844.21,44,841.68,44.12,838.93,43.9,836.29Z"/><path class="cls-6" d="M1816.3,943.93c-12.12-9.84-24-19.8-34.15-31.88a162.8,162.8,0,0,1-35-71.63c-1.91-9-1.94-18.54-1.94-27.84q-.17-302.87,0-605.72c0-18,.65-36.07,5.63-53.43,10.31-36,30.42-64.51,64.59-81.89,21.17-10.77,43.77-15.73,67.26-15.8,93-.26,185.92-.12,278.87-.15,8.67,0,8.16-.1,8.27,8.11.25,18-.84,36,.63,53.91,3,4,2.91,8.74,2.92,13.41,0,20.65.15,41.31,0,62-.13,15.1-3.06,18.11-18.33,18.15-65,.16-129.92,0-194.88.07-28.88,0-34.72,5.78-34.73,34.33V774.19c0,3,0,6,.08,9,.74,16.56,9.18,24.77,25.66,25.65,8.5.45,17.41-2.09,25.39,2.94,23.31.06,46.63,0,69.93.28,5.15.06,7.52-1.37,6.89-6.7a43.7,43.7,0,0,1,0-5q0-146.86,0-293.72c0-12.15,1.16-10.86-10.43-10.91-10.66,0-21.32.06-32,0-6.87-.05-7-.15-7-7.28q-.07-63.94,0-127.88c0-9.35-.38-8.67,8.64-8.67h181.83q12,0,24,0c1.64,0,3.37-.15,4.11,1.85a8.2,8.2,0,0,1,.72,2.89c-1.62,35.26,2.49,70.37,2.42,105.62q-.44,241.82-.13,483.62c0,23-.32,23.35-23.45,23.35q-154.38,0-308.76,0a144.72,144.72,0,0,1-60-13.22C1826.7,953.12,1820.84,949.47,1816.3,943.93Z"/><path class="cls-7" d="M6777.45,132.44c2.4,12.1,2.93,24.32,2.9,36.64-.16,56.52-.07,113-.07,169.56,0,2.33-.17,4.67,0,7,.41,4.77-1.7,6.39-6.38,6.33q-21.43-.29-42.88,0c-17.93.23-35.88-.85-53.8.63-14.56-1.47-29.15-.35-43.73-.67-9.16-.19-9.21-.11-9.25-9.3q-.19-42.29-.33-84.58c-3.26-4-2.84-8.74-2.89-13.37-.12-11.33-.09-22.66,0-34,0-6-2.12-9.41-8.65-9.41-27.32,0-54.64-.38-82,.21-9.2.2-14.59,5.63-17.33,14-1.89,5.81-1.71,11.84-1.71,17.84q0,271.9,0,543.82c0,2,0,4,.07,6,.71,18.42,7.5,25,25.8,25.71,7.87.29,16.07-1.7,23.49,2.7,4,.11,8,.33,11.95.33q90.7,0,181.41,0c10.81,0,10.84,0,10.86,10.78,0,13.29,0,26.58,0,39.87,0,3.29-.56,6.65.84,9.84,1.7,2.69,1.52,5.73,1.51,8.71,0,24.29.15,48.57-.07,72.85-.12,12.73-2.39,15.07-15.4,15.09-93.81.15-187.62.45-281.43-.19-23.35-.16-45-8-64.32-21.57-2.2-2-3.68-4.58-5.84-6.59-28.26-20.82-49.32-47.28-62.12-80.05a117.22,117.22,0,0,1-8-40.91c-.19-11.32-.07-22.66-.07-34q0-288.43-.1-576.88c-.09-61.38,27.35-107,78.09-139.28,17.23-11,36.5-17.6,57.45-17.57,67.65.1,135.33-1,202.94.81,30.18.78,57.09,14,79.44,35.24C6761.13,100.67,6770.51,115.7,6777.45,132.44Z"/><path class="cls-6" d="M4014.41,467.91c-9.23-8.1-18.74-15.91-27.62-24.38-12.6-12-23.06-25.65-28.16-42.73a64.28,64.28,0,0,1-2.83-18.66c.07-65.28-.38-130.56.2-195.83.33-36.17,14.79-66.84,40.42-92.29,17.87-17.74,39.29-29.18,63.55-35.15a124.33,124.33,0,0,1,29.67-3.26h241.79a21.29,21.29,0,0,0,3,0c4.81-.69,6.26,1.32,6.19,6.13-.27,18-.14,36-.16,54,2.21,4.25,2.78,8.79,2.77,13.54-.05,21.64.06,43.29-.05,64.94-.08,14.88-1.9,16.79-16.68,16.83-48.29.13-96.58,0-144.88.05a127.81,127.81,0,0,0-13,.29c-14.2,1.44-22.46,8.78-23,23-1.11,31.62-.52,63.27-.28,94.91,0,5.56,3.2,9.13,7.44,12.25,10.73,7.9,21.82,15.28,32.68,23a36.66,36.66,0,0,1,10.95,11.37c39.71,28.76,79.61,57.27,119.07,86.36,21.77,16.06,41.07,34.63,52.7,59.78,1.16,1,.5,3.15,2.37,3.67,11.6,15.38,11.4,33.84,12.51,51.6,4.79,76.23,1.14,152.56,2.13,228.84.31,24,.63,48-.11,72-.95,31.29-12.35,57.71-38.85,76.19a81.17,81.17,0,0,1-47,14.76c-89.65.29-179.29.14-268.94.1-4.34,0-8.72,0-12.37-3-15.3-.1-30.6-.16-45.9-.31-7.43-.07-7.54-.14-7.55-7.78q-.06-68.88,0-137.75c0-8.27.09-8.33,9-8.34q95.32,0,190.64,0c4.33,0,8.66,0,13-.16,11.42-.52,14.25-2.82,17.31-13.73,1.52-3.53.72-7.23.73-10.84.06-49.59-.14-99.19.18-148.78.07-11-1.83-21.81-2.08-32.75-.18-7.44-5.9-10.62-11-14.38-51.49-37.83-104.56-73.46-155.79-111.65C4021.92,476.26,4017.42,472.86,4014.41,467.91Z"/><path class="cls-6" d="M3495.74,966.3c-15.63-.15-31.27-.28-46.9-.48-6.94-.09-7.09-.15-7.09-7.18q-.08-69.4,0-138.82c0-7.78.12-7.86,8.4-7.86q96.87,0,193.74,0c4.33,0,8.67,0,13-.34,9.93-.87,14.18-5.32,15-15.27.08-1,0-2,0-3l-.12-172.77a13.74,13.74,0,0,1-1.92-9.59c1.55-10.08-3.79-16.06-11.44-21.25-48.08-32.64-94.84-67.16-142.12-100.93-9.38-6.7-19.4-12.9-26.21-22.67-14-10.69-27.23-22.15-38.46-35.82-11.54-14-18.4-29.66-18.35-48.26.2-65-.47-130,.25-195,.61-55.8,29.4-94.37,77.73-119.27,16.37-8.44,34.48-12.07,53-12.1q123.49-.19,247,0a32.74,32.74,0,0,1,4.87.73,5.19,5.19,0,0,1,1.13,3.7c-1,44.57,3.59,89.06,2.13,133.65-.5,15.39-1.95,17.26-17.37,17.3-48.3.11-96.6,0-144.9,0a95.19,95.19,0,0,0-13,.41c-13.51,1.89-20.42,9-20.62,22.56-.45,30.64-.1,61.29-.19,91.94,0,6.93,2.42,12.15,8.16,16.08,9.9,6.77,19.12,14.47,29,21.29,4.39,3,8.63,6.26,11.73,10.71,13.46,11.81,28.62,21.35,43,31.93,28.2,20.77,57.4,40.2,84.81,62,16.59,13.19,31.5,28.18,41.87,47,1.6,2.9,3,5.9,4.48,8.85.58.75,1.23,1.45,1.86,2.16h0c11.21,17.68,12.79,37.92,12.9,57.73.6,100.21.43,200.43.2,300.65-.1,44.25-38,83.94-82.36,84.38-90.55.9-181.12.3-271.68.26C3503.15,969.08,3499.17,968.8,3495.74,966.3Z"/><path class="cls-7" d="M876.37,811.55q39.35.18,78.68.34c21.92.06,43.83,0,65.75,0,8.78,0,8.83.1,8.91,8.66q.24,25.88.39,51.77c3.45,3.44,3.16,7.91,3.19,12.2.11,23,.19,46,0,68.93-.11,13.08-2.32,15.55-15,15.58-82.92.18-165.84.52-248.76-.22-19.72-.17-39-4.62-55.69-16.54a42.43,42.43,0,0,1-3.9-4.14c-20.75-13.5-37.41-30.79-49-52.75-10.62-20-16.38-41.47-16.4-64.08-.13-213.61-.61-427.22.29-640.82.23-54.75,26.27-96.61,75-122.89,16-8.63,33.7-12.05,52-12,21.66.06,43.32,0,65,0h182c11.64,0,11-.7,11,10.64.07,17,.24,34,.37,51,2.93,3.61,3.19,7.92,3.2,12.29.06,22,.17,43.95,0,65.93-.13,14.44-3.22,17.58-17.82,17.64-51.94.2-103.88.06-155.82.08h-5c-22.89.13-29.12,6.18-29.24,29-.16,31.63-.09,63.27,0,94.9,0,13,.76,13.23,13.43,13.82s25.28-2.42,37.55,2.28q41.37.18,82.73.36c16.62.05,33.23-.06,49.85.05,7,0,7.19.22,7.24,7.27.11,14.95,0,29.91.05,44.86,0,8.85-.3,32,8.22,32.08,13.94.15-8.12-11.12,5.82-11-2.3,4.46,29.75-7.93,25.91-7.76-8,.37-16,0-24,.17-11.68.18-12.65,1-12.78,12.45-.18,16.33,0,32.66-.08,49-.11,16.64-1.87,18.49-18.26,18.51q-80,.12-159.94,0c-15.52,0-15.75.22-15.76,15.47q0,130.46,0,260.9c0,1.67,0,3.34,0,5,.69,21.62,7.11,27.84,28.5,28.34C861.44,809.06,869.31,807.14,876.37,811.55Z"/><path class="cls-6" d="M3174.51,811.77c47.25.06,94.49.06,141.74.28,3.33,0,7.3-2,10.12,1.72a8.33,8.33,0,0,1,.74,2.87c-.81,44.9,3.82,89.7,2.3,134.61-.54,16.06-1.87,17.88-17.82,17.9q-120.39.12-240.79-.06c-18.92-.06-36.8-5.3-54-13.12-3.8-1.73-6.29-4.82-9-7.73-19.9-12.82-36.05-29.12-47.69-49.92a138,138,0,0,1-17.89-68.55q0-215.38,0-430.76,0-102.94,0-205.88c.06-44.82,17.29-81.95,51.68-110.53,20.76-17.25,45.16-26.76,72.35-26.86,84.95-.29,169.9-.12,254.85-.1a32.74,32.74,0,0,1,4.87.73c1.21,1.37,1.17,3,1.13,4.71-1.15,43.56,3.89,87,2.24,130.58-.15,4,0,8-.46,12-.65,5.35-3.58,8.37-9,9.06a100.23,100.23,0,0,1-13,.49H3157.17c-3.66,0-7.32-.06-11,.05-16.28.5-22.2,6.35-22.76,22.45-.1,2.66-.06,5.33-.06,8,0,31.3-.07,62.59,0,93.89,0,12.37.82,13.09,12.89,13.22,8.65.1,17.31,0,26,0,4.35,0,8.68.16,12.48,2.7l126.89,0c1.67,0,3.33,0,5,0,7.1.16,7.2.17,7.23,7,.08,14.66,0,29.31.06,44,0,3.65.38,7.29.58,10.94,2.68,3.75,2.82,8.08,2.84,12.44.06,17.65.15,35.3,0,52.94-.14,15.14-3.07,18.18-18.26,18.23-51.29.18-102.57.05-153.86.07-3.33,0-6.66-.07-10,0-10.45.36-11.75,1.34-11.76,11.49q-.15,136.88.06,273.74c.06,17.28,7.19,23.63,24.63,24.4C3157,809.25,3166.19,806.66,3174.51,811.77Z"/><path class="cls-8" d="M4728.23,812l141.61,0a31.07,31.07,0,0,0,4,0c4.9-.62,6.26,1.61,6.17,6.29-.25,13-.1,25.93-.07,38.9,0,5,.15,10,.23,14.94,3.22,3.53,3.13,7.94,3.15,12.26.08,22.63.19,45.27,0,67.91-.13,13.51-3.18,16.8-16.45,16.84-81.56.2-163.13.35-244.69-.12-16.37-.09-32.29-4-47.52-10.46-5.75-2.45-9.88-6.58-14.3-10.55-23.55-15.12-41.42-35.12-52.79-60.84-7.05-16-11.7-32.39-11.7-50q0-324,0-648c0-34.45,12-64.15,34.17-90.11,17.35-20.34,39.2-33.68,64.89-40.36a106.26,106.26,0,0,1,26.71-3.08q125,.08,250,0c9.44,0,8.26,0,8.38,9,.26,17.65-.74,35.31.57,53,2.68,3.75,2.8,8.08,2.82,12.43.05,21.64.14,43.27,0,64.91-.12,15.16-3.05,18.19-18.22,18.25-51.92.18-103.85.05-155.77.07-4.33,0-8.66-.14-13,.2-12.37,1-18.54,6.78-20.42,19.19-.8,5.29-.54,10.63-.55,15.95,0,30-.09,59.92,0,89.87,0,11.51,1,11.92,12.68,12.53,13.5.7,27.31-2.61,40.5,2.75q65.68,0,131.38-.08c7.82,0,7.78.11,7.92,8.28.32,17.9-.71,35.81.59,53.7,2.74,3.73,2.86,8.07,2.87,12.42.06,17.65.16,35.3,0,52.94-.15,15.13-3.06,18.14-18.3,18.2-51.28.18-102.56.05-153.84.07-3,0-6,0-9,0-14.1.14-14.77.72-14.79,14.54q-.09,46.95,0,93.91,0,83.42,0,166.83c0,29.08,5.27,34.22,34.46,34.34C4716.13,808.85,4722.57,808.13,4728.23,812Z"/><path class="cls-7" d="M6091.89,811.55q44.77.18,89.56.34c15.59.05,31.19,0,46.78,0,7.63.05,7.73.17,7.81,7.7.18,17.58.25,35.16.36,52.73,3.28,3.55,2.89,8,2.91,12.3.12,23,.2,45.92,0,68.89-.12,13.28-2.35,15.54-16,15.57-79.54.13-159.08.42-238.62-.18-20.46-.15-40.3-4.77-57.53-17-1.82-4.32-6.11-6.08-9.54-8.44-29.81-20.56-46.61-49.57-54.4-84.14-2.1-9.32-2.5-19.18-2.51-28.79q-.19-382.29-.1-764.58c0-1.67.1-3.34,0-5-.22-3.83,1.53-5.53,5.33-5.34,2,.1,4,0,6,0h154.92c1.33,0,2.67,0,4,0,7.5.19,7.62.19,7.67,7.87.08,14.66,0,29.32.05,44,0,3.29-.62,6.69,1.15,9.79,2.25,5.76,1.69,11.8,1.69,17.77q0,316.64,0,633.27c0,6.32-.26,12.67.78,18.94,2.39,14.31,9.75,20.56,24.33,21.54C6075,809.37,6083.87,806.64,6091.89,811.55Z"/><path class="cls-9" d="M2423.76,940.28c16.46,10.6,33.16,20.66,51.63,27.63a232.73,232.73,0,0,0,66.89,14.45c19.32,1.31,38.6,1.45,57.89,1.17,23.28-.33,46.59-1.92,69-8.46,31.6-9.21,60.47-23.78,85.21-46,18.26-16.41,33.75-34.95,44.49-57s18.25-44.95,17.47-69.91c-.14-4.66.07-9.33.07-14q0-328.95-.1-657.89c0-24.65-.8-49.3-.3-74,2.75,2,1.47,4.9,1.49,7.36.13,14.67,0,29.33.07,44,0,9.56.07,9.58,10,9.61,12,0,24-.07,36,0,7.06.07,7.08.21,7.29,7.22.08,2.66,0,5.33,0,8q0,358.47.09,716.92c.08,72.39-32.71,125.5-92.86,163.31-25.12,15.79-52.65,25-81.86,29.47l-5.84,0-6.2-.18-100.38.11-5.94.18c-52.59-7.46-97.06-30.36-132.44-70.19C2436.93,962.51,2428.77,952.42,2423.76,940.28Z"/><path class="cls-10" d="M1380.78,966.21c19.47-2.12,32.66-11.56,40.81-30.17,19.06-43.55,37.4-87.37,55.52-131.31,13.69-33.19,26.41-66.74,39.48-100.16,12-30.58,22.4-61.75,34-92.47,12.82-33.89,24.14-68.28,35.31-102.71,7.68-23.67,14.62-47.57,21-71.65,5-19,8.85-38.12,12.18-57.42a81.44,81.44,0,0,0,.94-13.92c0-47.33.28-94.66-.1-142-.2-24.15-5-47.54-15.23-69.6-1.4-3-3.2-5.88-2.91-9.42,13.72,8.55,24,20.7,33.9,33.11,18.86,23.57,30.46,50.54,35.63,80.11,1.76,10.09,1.58,20.59,1.62,30.9.15,45.34,0,90.67.08,136,0,19.43-3.57,38.28-8,57.11-7.15,30-16.33,59.45-25.38,88.92-6.52,21.23-14.11,42.15-21.42,63.14q-9.81,28.17-20.06,56.2c-8.52,23.37-17,46.73-25.89,70q-14.87,39.06-30.36,77.88c-10.23,25.55-20.79,51-31.36,76.38q-14.13,34-28.64,67.78c-3.12,7.33-6.21,14.71-10,21.7-7.92,14.65-20.06,22.2-37.2,22.13s-29.48-7.41-37-22.31C1391.48,992,1386.38,979,1380.78,966.21Z"/><path class="cls-9" d="M1816.3,943.93c10.86,4.87,21,11.11,32.49,14.85,12.45,4.06,25.08,7,38,7q163,.32,326,.11c9.46,0,9.52-.1,9.52-10.29q0-143.49,0-287,0-120,0-240c0-21.66-.41-43.31-.56-65,0-3.31-.47-6.67.64-9.92,1.89,14.58.59,29.23.81,43.84.25,16,.06,16,15.74,16,10.67,0,21.33.16,32-.07,4.38-.1,6.09,1.52,5.68,5.8-.18,2,0,4,0,6q0,294.48,0,589c0,13.93,1.75,12.23-12.14,12.23-107,0-214-.29-321,.23-30.33.15-56.65-9.24-80.62-27-19.56-14.48-34.4-33-46.43-53.91C1816.11,945.36,1816.32,944.58,1816.3,943.93Z"/><path class="cls-1" d="M113.14,943.88c10,5.14,19.8,10.78,30.57,14.41,13,4.38,26.21,7.61,40,7.62q163.49.11,327,0c9.14,0,9.18-.1,9.18-10.48q0-264.47,0-528.93c0-4.33.26-8.65.4-13,15,0,30,0,45,0,8.48,0,8.48.11,8.57,8.92,0,1,0,2,0,3q0,294.48,0,589c0,13.23,1.92,12.08-12.43,12.08q-164,0-328,0c-26,0-48.71-9.42-69.61-23.73-20.59-14.1-36.47-32.71-48.92-54.27A27.35,27.35,0,0,1,113.14,943.88Z"/><path class="cls-9" d="M1976.5,811.77c-9,.06-18-.28-27,.28-15.54,1-27.62-12.45-27.5-27.55.47-59,.19-118,.19-176.93q0-184.94,0-369.87c0-5,.12-9.81,2.17-14.64,4.12-9.72,11.45-14.31,21.59-15,3.32-.24,6.66-.13,10-.13H2153.9c2.33,0,4.67.05,7,0,8.39-.22,8.89-.59,8.92-9.34.1-23,0-46,.06-69,0-4,.35-8,.54-12,15.32-.11,30.64-.08,45.95-.42,5-.11,6.1,2,6.08,6.55q-.16,70,0,139.94c0,4.83-1.64,6.7-6.38,6.22a67.88,67.88,0,0,0-7,0c-67.3,0-134.61.29-201.91-.17-20.86-.15-31.22,7.5-31.2,31.33q.15,250.89.07,501.78C1976.06,805.79,1976.35,808.78,1976.5,811.77Z"/><path class="cls-1" d="M272.49,811.54c-9.32.11-18.65.58-28,.26-13.72-.48-24.77-8.9-24.51-24.5.06-3.67-.14-7.33-.14-11q0-266.26,0-532.53c0-4,.19-8,.17-12-.09-13.7,9.2-22.59,23.17-23.72,3-.24,6-.11,9-.11H451.05c2,0,4,0,6,0,8.66-.13,8.72-.13,8.78-8.88q.24-41,.41-81.9,21.48,0,43,0c10,0,10.1,0,10.1,9.52q0,67,0,133.91c0,11.19-1.24,9.2-9.36,9.2q-102.93,0-205.86,0c-5,0-9.85,0-14.81,1.43-6.7,1.9-10.78,5.93-13.48,12.07s-3.31,12.79-3.31,19.51q.08,78.44,0,156.89Q272.51,635.67,272.49,811.54Z"/><path class="cls-9" d="M3495.74,966.3c4.32-.13,8.65-.39,13-.39q132.89,0,265.76-.06c37.32,0,64.39-20.81,78.14-53.35a68.93,68.93,0,0,0,5.57-27.16c-.23-102.57,0-205.15-.57-307.72-.08-14.42-2.21-29.15-7.91-42.85a17.39,17.39,0,0,1-1.58-8.71c32.88,23.15,55.47,53.2,61.4,93.8a280.55,280.55,0,0,1,2.43,39.85c.22,94.29.46,188.57,0,282.86-.17,35.26-16.68,61.53-48.36,77.58a56.57,56.57,0,0,1-25.88,6.34q-166.92-.1-333.83,0c-8,0-8.1-.13-8.13-8.26C3495.71,1001,3495.75,983.63,3495.74,966.3Z"/><path class="cls-9" d="M4018,966.13c3.33-.08,6.66-.23,10-.23,89.32,0,178.64-.3,268,.11,43.36.2,77-29.32,84.23-70.21A112.36,112.36,0,0,0,4382,876c-.09-91,.24-182-.3-273-.13-21.5-1.53-43.12-7.18-64.2-1.19-4.45-4.49-8.28-3.89-13.21,27.84,19.63,49.55,44.08,58.31,77.76a164.34,164.34,0,0,1,5.73,41.4c-.08,101.58.45,203.16-.35,304.73-.24,30.12-16.67,52.49-42.16,67.92-11,6.66-23.16,9.24-36.19,9.22q-164.35-.29-328.71-.11c-8.94,0-8.95-.09-9-9.45Q4018.09,991.6,4018,966.13Z"/><path class="cls-9" d="M2608.24,854.29c-2.79,2.47-6.31,2-9.52,2-10,0-20-.06-29.95-.6-14.84-.79-25.54-8.57-33-21-9.53-15.83-13.18-33.46-13.3-51.52-.39-60.3-.14-120.6-.15-180.89q0-241.86-.07-483.7a26.75,26.75,0,0,1,.31-3c2.91,2.26,6.33,1.65,9.61,1.66,11.66,0,23.31,0,35,0,10.4,0,9.47-.57,9.52,9.94,0,2.33,0,4.66,0,7q0,352.68,0,705.35c0,17.73-1.62,14.92,15.67,15.13C2597.62,854.74,2602.93,854.43,2608.24,854.29Z"/><path class="cls-1" d="M6091.89,811.55c-10,.11-20,.6-30,.22-12.56-.47-19.93-7.63-22.34-20.09a77.77,77.77,0,0,1-1.15-14.9q0-324.39,0-648.77c0-3.6-.86-7.36,1.22-10.74,15.31,0,30.63.07,45.94-.11,4.59,0,7,1.34,6.33,6.28a21.44,21.44,0,0,0,0,3Z"/><path class="cls-1" d="M6560.71,811.56c-9.32.11-18.64.53-27.94.26-15.43-.47-23.05-7.88-24.49-23.33-.34-3.64-.26-7.32-.26-11q0-273.19,0-546.39c0-6.32-.2-12.67,2-18.75,3.12-8.53,8.86-14.48,18.22-14.59,30-.36,59.93-.15,89.89-.33,4.93,0,6.22,2.15,6.16,6.64-.24,18-.26,35.95-.37,53.92-11.65,0-23.31-.07-35,.06-16,.2-24.52,7.56-27.51,23.14-.89,4.65-.68,9.29-.68,13.94Q6560.72,553.35,6560.71,811.56Z"/><path class="cls-9" d="M3174.51,811.77c-10.31.06-20.63.31-30.94.13-14.28-.25-22.64-8.57-23.4-22.94-.16-3-.11-6-.11-9q0-135.81,0-271.6c0-13.31-1-12.61,12.25-12.61h165.75c2.33,0,4.67.06,7,0,8.07-.23,8.61-.71,8.86-8.4.12-3.66,0-7.33,0-11,.31-20.28-.68-40.58.56-60.86,15.65-.1,31.29-.05,46.93-.39,5.46-.12,6.6,2.23,6.58,7.16-.14,42.63-.05,85.26-.11,127.89,0,7.41-.16,7.49-9,7.49q-83.43,0-166.85,0c-4.33,0-8.67.16-13,0-4-.18-5.37,1.65-5,5.37.12,1.32,0,2.66,0,4q0,117.9,0,235.79C3174.08,805.79,3174.36,808.78,3174.51,811.77Z"/><path class="cls-1" d="M876.37,811.55c-9.33.12-18.65.42-28,.32-16.42-.19-24.45-7.67-25.95-23.92-.21-2.31-.1-4.66-.1-7q0-137,0-274c0-2,.12-4,0-6-.2-3.93,1.8-5.35,5.48-5.19,2.33.11,4.66,0,7,0h167c2.33,0,4.67.05,7,0,7.14-.22,7.33-.24,7.37-7.25.11-18.66,0-37.32,0-56,0-17.18,0-17.13,17.57-17.19,11,0,22-.22,32.94-.34,1.78.25,3.16,1.1,3.29,3,.18,2.65.19,5.32.19,8q0,60.43,0,120.87c0,2-.08,4,0,6,.13,3.3-1.26,5-4.69,4.79-2.33-.11-4.66,0-7,0H888.7c-2.34,0-4.67.12-7,0-3.74-.23-5.6,1.18-5.31,5.16.19,2.65,0,5.32,0,8Q876.4,691.18,876.37,811.55Z"/><path class="cls-9" d="M4728.23,812c-9.65,0-19.31.19-28.95,0-21.25-.51-24.33-9.22-26.87-25.13a44,44,0,0,1-.09-7q0-135.91,0-271.85c0-13.3-.87-12.17,12.65-12.17q84,0,167.91,0c2,0,4,.05,6,0,8.42-.22,8.92-.6,9-9.29.1-20,0-40,.06-60,0-3.65.36-7.3.56-10.95,15-.12,29.95-.33,44.92-.32,6.87,0,7,.21,7,7.37q.09,63.93,0,127.86c0,7-.19,7.15-7.25,7.18-22,.08-44,0-65.93,0H4738.36c-2.66,0-5.33,0-8,.08-2.38.08-3.57,1.41-3.59,3.79s-.05,4.66-.05,7q0,116.37,0,232.74C4726.76,804.88,4726,808.65,4728.23,812Z"/><path class="cls-9" d="M5050.05,966.08l106.88-.19c2.33,0,4.67-.14,7,0,4.63.3,6.81-1.63,6.5-6.39-.18-2.65,0-5.32,0-8V596.89c0-14.51,1.35-15.65,15.53-10.51,35.25,12.79,66.21,32.17,90.48,61.16,6.09,7.27,11.95,15,13.42,25-8-2.54-14.39-7.9-21.64-11.76a195.51,195.51,0,0,0-35.9-14.47c-6.33-1.9-7.21-1-7.42,6.07-.07,2.33,0,4.66,0,7v351.52c0,2.33,0,4.66,0,7-.11,8.59-.11,8.68-8.76,8.68q-78.41,0-156.79,0c-8.87,0-8.88-.09-8.94-9.53Q5050.21,991.55,5050.05,966.08Z"/><path class="cls-1" d="M6404.31,943.42c23.15,15,48.2,22.8,76.09,22.69,90.17-.38,180.35-.14,270.52-.14h3c10.85-.05,10.88-.05,10.89-10.83q0-35.45,0-70.88c0-4-.4-8,1-11.86,15.32,0,30.64-.13,46-.06,7,0,7.18.19,7.18,7.34q.11,70,0,139.92c0,6.85-.21,7-8.45,7q-68.46.06-136.92,0c-48.63,0-97.28-.5-145.91.21-25,.36-47.14-7.12-67.66-20.24A171.1,171.1,0,0,1,6404.14,948a5.84,5.84,0,0,1-1.44-2.22,4.17,4.17,0,0,1-.38-1.81A1.31,1.31,0,0,1,6404.31,943.42Z"/><path class="cls-9" d="M5346,966.1l110.87-.21c2.67,0,5.33-.09,8,0,3.79.1,5.46-1.71,5.35-5.44-.08-2.33,0-4.66,0-7q0-142.35.12-284.71a53.45,53.45,0,0,0-4.27-21.29c-3.75-8.87-7.22-17.86-12.15-26.18-1-1.7-1.87-3.56-1.48-5.68,6.13,2.9,10.3,8.18,14.88,12.81,23.87,24.14,42.1,52,53.78,83.94a42,42,0,0,1,2.53,14.63q0,145.29,0,290.59c0,8.86-.09,9-8.58,9q-79.89.06-159.77,0c-8.89,0-8.9-.09-8.95-9.51Q5346.16,991.57,5346,966.1Z"/><path class="cls-9" d="M5414.54,566.1c-5.64-3-10-7.67-14.65-11.79a237.88,237.88,0,0,0-54-35.56c-2.89-1.4-6.26-2.1-8.7-5.57,8.64-3.13,17.24-5.19,25.2-9.08,38.93-19,68.76-47.28,87.73-86.41A77.71,77.71,0,0,0,5458,383c-.24-64-.15-128-.08-192a80.77,80.77,0,0,0-9.08-38.37,9.64,9.64,0,0,1-.47-2.91c22.29,14.38,38.85,33.87,51.3,57.11,8.69,16.23,11.82,33.47,11.72,51.81-.32,59.95-.57,119.91.11,179.85a101.58,101.58,0,0,1-16.87,58.3,195,195,0,0,1-77.19,68.77A10.49,10.49,0,0,1,5414.54,566.1Z"/><path class="cls-9" d="M3174.74,353.54c-16,.12-32,.09-47.95.42-5.38.11-6.81-2.22-6.79-7.17.11-38.32-.11-76.64.16-115,.09-13.86,7.94-21.31,21.83-22,3.32-.18,6.66-.1,10-.1h161.95c2.67,0,5.33,0,8-.1s4.29-1.49,4.33-4.33c0-2.67.09-5.33.08-8q-.3-65-.6-129.93c0-3.66.17-7.32.27-11,2.38,2.94,1.16,6.4,1.19,9.59.14,14.66,0,29.32.1,44,.06,7.06.23,7.21,7.37,7.29,12.33.12,24.66,0,37,.06,8.22,0,8.33.13,8.34,8.18q0,69,0,137.93c0,7.9-.14,8-8.5,8q-82,.06-163.92,0c-4.33,0-8.66.05-13,.26-12.33.6-19.68,7.53-20.29,19.94-.5,10-.34,20-.17,30C3174.28,332.26,3173.27,342.93,3174.74,353.54Z"/><path class="cls-9" d="M3007.82,948.24c22.08,11.63,45.32,17.89,70.54,17.78,78.54-.35,157.08-.13,235.62-.13,13.46,0,12.4.83,12.35-12.45q-.26-64.38-.58-128.76c0-3.64-.5-7.33.62-10.91,1.62,3.15.83,6.55.85,9.82.1,14.32.15,28.65,0,43-.05,4.24,1.42,5.88,5.75,5.82,12.66-.19,25.31-.09,38,0,9,0,9.06.08,9.07,9.42q0,67.95,0,135.9c0,8.77-.08,8.88-8.58,8.88-83.6,0-167.21-.18-250.81.08-26.43.08-49.62-8.81-70.24-24.27C3031.53,988.23,3016.73,970.42,3007.82,948.24Z"/><path class="cls-9" d="M4728.57,353.66c-16.31.08-32.61.25-48.91.18-7.06,0-7.29-.24-7.3-7.39-.1-37.29-.56-74.6.15-111.88.34-18,9.38-24.91,25.67-24.88q83.91.1,167.82,0c14,0,14,0,14-14.32,0-22.31,0-44.62,0-66.93,0-3.65.33-7.3.51-11,14.66-.08,29.32-.23,44-.22,8,0,8.12.13,8.13,8.29q.07,55,0,110c0,10-.12,20,.05,30,.07,4.19-1.36,6.25-5.75,5.9-2.32-.18-4.67,0-7,0q-80.48,0-161,0c-4.67,0-9.35,0-14,.35A19.13,19.13,0,0,0,4728,286.28a47.15,47.15,0,0,0-1.33,9.86c-.11,17,0,34,0,51C4726.7,349.53,4726.93,351.77,4728.57,353.66Z"/><path class="cls-1" d="M876.35,353.2c-16,.14-32,.15-47.92.49-5,.1-6.16-2.18-6.15-6.65.09-37.63-.16-75.26.12-112.89.13-16.39,8.36-24.14,25.09-24.43,16-.27,32-.07,48-.07q62.44,0,124.88,0c9.26,0,9.32-.12,9.38-9.51q.25-41.44.41-82.89c14.65,0,29.29-.06,43.94,0,8.13,0,8.24.13,8.25,8.17q.06,56.92,0,113.85c0,8.32.08,16.64,0,25-.09,7-.19,7.18-7.25,7.21-19,.09-37.94,0-56.92,0-37.94,0-75.9.63-113.83-.24-21.38-.48-29.11,10.82-28.12,29.07C877.12,317.87,876.36,335.56,876.35,353.2Z"/><path class="cls-9" d="M4196.46,375.8q-24.78-17.42-49.57-34.81c-3.6-2.52-4.82-5.79-4.79-10.2.15-31.26,0-62.53.12-93.8.09-19,9.9-28.93,29-29,36.59-.19,73.18-.06,109.77-.07,17,0,33.92.06,50.89,0,8.15,0,8.3-.18,8.32-8.41.06-26.61,0-53.22,0-79.83,0-1.32.15-2.63.24-4,2.95,2.11,6.36,1.58,9.65,1.59,11.32,0,22.64,0,34,0,9.44,0,9.53.07,9.54,9.09q0,67.42,0,134.86c0,8.53-.11,8.61-8.9,8.61q-77.93,0-155.85,0c-5,0-9.89.07-14.82,1.46-8.82,2.48-14.37,7.78-16.26,16.75a49.17,49.17,0,0,0-1.52,9.81C4196.22,323.86,4196.37,349.83,4196.46,375.8Z"/><path class="cls-1" d="M712.33,949.7c22.53,11.86,46.46,16.6,72,16.44,76.85-.48,153.71-.17,230.56-.17h4c11.35,0,10.84.78,10.88-10.79q.13-41.41.37-82.83c14.66,0,29.31-.07,44,0,8.12,0,8.23.11,8.24,8.2q.06,53,0,105.9c0,11.33-.21,22.65.09,34,.12,4.87-1.64,6.76-6.34,6.19a16.67,16.67,0,0,0-2,0c-83.26,0-166.52-.23-249.77.1-26.4.1-49.66-8.37-70.49-23.59-18.18-13.27-32.51-30.15-41.76-51A1.4,1.4,0,0,1,712.33,949.7Z"/><path class="cls-9" d="M4560.31,947.93c16.15,8.77,33.08,15.07,51.52,17.1a110.86,110.86,0,0,0,11.91.84q122.42,0,244.83,0h2c8.68-.21,9.15-.63,9.38-8.92.08-2.66,0-5.33,0-8l.18-76.93q22,.13,43.92.28c8.38.07,8.53.11,8.54,7.94q.07,69.4,0,138.8c0,7.32-.17,7.46-7.92,7.46-86.54,0-173.09.32-259.63-.39-23.52-.2-44.28-10.47-62.86-24.77A137.15,137.15,0,0,1,4560.31,947.93Z"/><path class="cls-9" d="M3672.1,374.05c-4-.09-6.51-3.26-9.38-5.27-12.52-8.78-24.66-18.1-37.12-27-3.87-2.76-5.8-5.78-5.77-10.71.2-32.65.33-65.31.09-98-.12-15.58,10.4-23.38,24.26-25.08a83.14,83.14,0,0,1,10-.16h148.95c2.67,0,5.33-.09,8,0,3.88.09,5.33-1.94,5.21-5.59-.07-2.33,0-4.66,0-7q-.3-64-.6-127.93c0-3.66.17-7.32.27-11,2.37,2.94,1.16,6.4,1.19,9.59.14,14.66,0,29.32.1,44,.06,7.06.23,7.22,7.38,7.29,12.32.12,24.65,0,37,0,8.92,0,9,.09,9,8.42q.06,68,0,136c0,8.08-.13,8.19-8.26,8.19q-75.46.06-150.94,0c-3,0-6,.06-9,0-21.36-.45-29.72,11.79-29.88,30.28-.12,15,0,30,0,45C3672.53,354.76,3672.27,364.4,3672.1,374.05Z"/><path class="cls-1" d="M5927.13,951.91c7.08-.49,12.43,4.22,18.61,6.37,13,4.53,26.25,7.54,39.91,7.57q120.78.3,241.54.1c8.73,0,8.8-.12,8.85-8.76q.22-42.42.36-84.83c15.64,0,31.29.15,46.93-.15,5.24-.09,6.83,1.69,6.81,6.86q-.23,70.39,0,140.79c0,5.32-1.74,6.92-6.84,6.8-11.64-.26-23.3-.07-34.95-.08-70.23,0-140.46-.13-210.69,0-31.93.06-58.79-12.11-81.69-33.52C5943.58,981.46,5933.37,968,5927.13,951.91Z"/><path class="cls-6" d="M5580,364.18c-2.65-2-1.38-4.93-1.39-7.39q-.12-63.9-.07-127.79c0-9.1-.32-8.69,8.71-8.69,37.93,0,75.87-.05,113.81,0,21.51.05,34.67,11.79,37.57,33.2-1.18,21.21,6.68,41.72,4.76,63.05-1.34,14.78-2.67,29.24-14.6,40.16-6.4,5.86-13.66,9.65-22.3,10C5664.23,368.58,5622.12,365,5580,364.18Z"/><path class="cls-6" d="M5631.68,796.41c-15.67,0-31.34-.15-47,.07-4.71.06-6.3-1.3-6.28-6.22q.27-65.5,0-131c0-5.22,1.58-6.83,6.8-6.8,38,.19,76,0,114,.23,6.22,0,12.67.12,18.62,2.77q18.46,8.19,20.62,28.26c-1.13,21.54,6.53,42.39,4.9,64-.57,7.68-1.26,15.28-3.34,22.68-4.6,16.37-17.32,27.22-34.86,28.19-21.61,1.2-43.29.43-64.95.31A15.39,15.39,0,0,1,5631.68,796.41Z"/><path class="cls-9" d="M5580,364.18c17.61-1.07,35.23-.44,52.84-.27,24.29.25,48.59.51,72.87.08,14.13-.26,26.58-10.71,30.86-24.29,2.21-7,3-14.2,3.39-21.55,1-18.31-2.12-36.44-1.95-54.7,0-3.3-.5-6.66.62-9.9,2.74,7.07,1.07,14.44,1.19,21.65.08,5.05,1.43,7.12,6.8,6.85,7.61-.38,15.2-.26,22.65,2.38,13.28,4.72,23,16.32,23.22,30.5.42,25.95.8,51.93-.1,77.85-.69,19.61-18.51,33.19-34.73,33.1-39.26-.22-78.52,0-117.78,0-7.31,0-7.41-.16-7.45-8-.07-15,0-29.95,0-44.92,0-7.39-.15-7.49-7.81-7.54-13.31-.08-26.62,0-39.93,0C5583,365.39,5581.26,365.51,5580,364.18Z"/><path class="cls-9" d="M5631.68,796.41c23.27-.11,46.54-.26,69.81-.32,18.48-.05,29.83-10.44,34.46-22.38a52.75,52.75,0,0,0,3.78-20.44c-.39-13.9.87-27.77-1.42-41.73-1.48-9-.94-18.54.12-27.82,2.86,6.74,1.19,13.82,1.41,20.73.34,10.74-.95,9.68,9.56,9.82,7.26.09,14.47-.54,21.55,2.67,14.28,6.46,21.44,17.37,21.59,32.76q.33,36,0,71.92c-.15,19.6-14.25,34.67-33.92,36.39-5.95.52-12,.33-18,.34q-49.45,0-98.9,0c-10.21,0-9.4.17-9.4-9.07q0-23.47,0-47A56.86,56.86,0,0,0,5631.68,796.41Z"/><path class="cls-9" d="M4014.41,467.91c15.1,10.86,30.15,21.79,45.3,32.57,26.8,19.07,53.69,38,80.5,57.08,16.52,11.75,32.92,23.67,49.46,35.4,4.45,3.16,6.23,7,6.34,12.61,1.09,60,.26,120,.42,179.95,0,4.21.86,8.71-2,12.53.07-55.26-.06-110.52.42-165.77.07-8.69-2.66-13.78-9.73-18.76-38.79-27.29-77.83-54.26-115.46-83.17-16.89-13-33.33-26.49-45.82-44C4019.83,480.66,4015.62,475,4014.41,467.91Z"/><path class="cls-9" d="M3490,466.11c49.74,37.23,100.45,73.11,151.32,108.77,8.7,6.1,17.08,12.67,25.79,18.76,3.64,2.54,5.39,5.44,5.05,10-.41,5.63-.34,11.31-.47,17-44.64-31.92-90.11-62.68-133.29-96.6-13-10.25-25.52-21.11-35.48-34.54C3497.62,482.21,3492.94,474.65,3490,466.11Z"/><path class="cls-11" d="M6404.31,943.42l-2,.59a4,4,0,0,1-2.07-3.32A6.24,6.24,0,0,1,6404.31,943.42Z"/><path class="cls-9" d="M4370.6,525.62a2.82,2.82,0,0,1-2.37-3.68C4369.55,522.83,4370.66,523.84,4370.6,525.62Z"/><path class="cls-12" d="M712.33,949.7c-.09.81-.18,1.62-.28,2.42-1.81-.73-2-2.33-2.12-4A2.32,2.32,0,0,1,712.33,949.7Z"/><path class="cls-9" d="M3848.11,526.05c-1.32-.12-1.81-.95-1.86-2.16C3847.52,524.05,3848.24,524.68,3848.11,526.05Z"/><path class="cls-11" d="M6402.7,945.82a2,2,0,0,1,1.44,2.22C6403,947.71,6402.38,947.08,6402.7,945.82Z"/><path class="cls-10" d="M1500.07,225.51c-16.86-7.1-34.5-9.4-52.67-8.94-11.33.29-22.67,0-34,.06-46.27.19-83.57,26.91-98.08,70.62a76.69,76.69,0,0,0-3.44,18.56,481.62,481.62,0,0,0,.08,71.87c.39,5,2.75,9.66,2,14.78-7.37-.92-12.62-5.92-18-10.12-19.87-15.54-32-36.1-37.32-60.66-.83-3.85-.68-7.95-.7-11.94-.06-18.64.13-37.29-.06-55.93-.31-31,12.35-56,35.74-75.63,17.92-15.05,38.61-22.89,62.29-22.5,17,.28,34,.55,50.93,0,40.5-1.4,78.84,27.64,92.21,64A31.87,31.87,0,0,1,1500.07,225.51Z"/><path class="cls-9" d="M5226.22,448.11c-15.55,8.47-32.62,12.59-49.51,17.24-4.14,1.14-6.46-.12-6.3-4.75.07-2,0-4,0-6V210.08c0-13.44-.74-12.41,12.43-12.41,24.29,0,48.61.77,72.86-.21,22.63-.92,36.6,14.8,38.31,37,.62,7.92,0,15.95-.08,23.93-3.64,3.11-8.1,2.72-12.39,2.76-13.67.13-27.33,0-41,.08-12.27.09-13.11.83-13.14,13q-.14,79.5,0,159C5227.38,438.22,5227.41,443.21,5226.22,448.11Z"/><path class="cls-13" d="M1623.21,325.31c-1.47-31.23-.54-62.59-.17-93.89a209.53,209.53,0,0,0-4.9-45.58c-3-14.33-7.47-28.34-16.3-40.45-1.1-2.41-3.18-4.07-4.56-6.37-8-13.36-17-26.09-27.93-37.22-36.19-36.7-80-57.87-131.11-63.94-2.33-1.5-4.93-.56-7.4-.83-2.88-.41-6,1-8.66-1h-80c-1.93,1.79-4.31.74-6.47,1h-4.14c-1.84.13-3.76-.4-5.47.72a104.1,104.1,0,0,0-10.91,1.06c-30.19,6-59,15.6-84.85,32.86-57.17,38.18-88,90.79-87.82,160.39.09,40.67.33,81.33-.11,122-.26,23.89,4.15,47,9.9,69.9,5,19.94,10.81,39.68,16.71,59.4,10.47,35,22.26,69.5,34.16,104,11.26,32.61,24,64.71,35.71,97.15,12.3,34,25.55,67.62,39,101.14,20.28,50.46,40.86,100.8,63.09,150.47,8.08,18,20.55,27.95,39.77,30.13,3.37,2.46,6.89,1.51,10.52.63,15-3.65,24.89-13.05,31.41-26.89,7.81-16.58,14.86-33.47,22.1-50.28,31.46-73.11,60.54-147.17,88.4-221.71,25.18-67.38,49-135.2,69.68-204.12C1616.46,418.61,1625.46,373,1623.21,325.31Zm-116.92-16.67c-.11,24.05-9.52,44.37-25.33,62-14.44,16.13-32.74,25.63-53.49,30.79-6.2,1.54-12.6,1-18.9,1.08-20.3.1-40.62.18-60.91-.35a61.41,61.41,0,0,1-32-9.72h0c-7.36-.92-12.62-5.92-18-10.12-19.87-15.54-32-36.1-37.32-60.66-.83-3.85-.68-7.95-.69-11.94-.07-18.64.12-37.29-.07-55.93-.31-31,12.35-56,35.74-75.63,17.92-15.05,38.61-22.89,62.29-22.5,17,.28,34,.55,50.94,0,40.49-1.4,78.83,27.64,92.21,64a32.74,32.74,0,0,1,1,5.83,40.13,40.13,0,0,1,4.43,19.22C1506.24,266,1506.38,287.33,1506.29,308.64Z"/><path class="cls-10" d="M1313.73,377.68a481.62,481.62,0,0,1-.09-71.87,76.69,76.69,0,0,1,3.44-18.56c14.51-43.71,51.81-70.43,98.08-70.62,11.34,0,22.68.23,34-.06,18.18-.46,35.82,1.84,52.68,8.94-3.61-5.63-9.56-6.93-15.44-8.09-33-6.47-66.4-7.75-99,.35-38.88,9.66-64.21,34.91-74.17,74.31-6.36,25.2-4.47,50.92-3.52,76.47.29,8.09,1,16.69,6,23.91h0C1316.47,387.34,1314.12,382.65,1313.73,377.68Z"/><path class="cls-8" d="M5473.55,676.58c.12-23.19-7.73-42.86-21.1-61-5.2-7.25-10.2-14.65-15.64-21.71-7.24-9.4-14.83-18.52-22.27-27.77-.52-3.2-2.73-5.27-5-7.24-13.07-11.38-26.59-22.14-41.46-31.16-7.52-4.57-15.49-8.41-24.95-13.38,34.58-11.12,61.18-30.53,83.46-56,18-20.64,33.57-43.33,34-71.68,1-66.6.65-133.22.05-199.83-.12-13.19-2.41-26.63-12.27-37.07-1.28-2.33-2.58-4.64-3.83-7-20.11-37.57-51.7-61.74-91-76-23.56-8.57-48.4-11.2-73.52-11.17q-135.4.18-270.83,0c-11.37,0-11.37,0-11.37,11.74V953.81a49.84,49.84,0,0,1,0,6c-.59,4.92,1.59,6.19,6.3,6.13,15.31-.18,30.63.07,45.95.15,3,2.55,6.66,2.88,10.36,2.89,33,.09,65.93.22,98.9-.07,11.21-.09,13.46-2.47,13.78-13.6.35-12.31.11-24.64.11-37q0-158.85,0-317.69c0-13.53,2-15.16,14.49-10.47A235.89,235.89,0,0,1,5238,616.59c21.55,14.75,38.55,33.58,51.83,55.92,3.33,4,2.63,8.74,2.63,13.35q0,135.15,0,270.31c0,10.46-.87,9.62,9.68,9.67q21.93.1,43.87.26c4.57,3.71,10.06,3,15.33,3.06q45,.11,90,0c21.34,0,22-.68,22-21.71C5473.38,857.18,5473.1,766.88,5473.55,676.58ZM5294,371.05c-.17,13.2-6.54,24.87-14.24,35.39-12,16.35-27.82,28.19-45.53,37.69-2.62,1.4-5.32,2.66-8,4h0c-15.55,8.47-32.62,12.59-49.51,17.24-4.14,1.14-6.46-.12-6.3-4.75.07-2,0-4,0-6V210.08c0-13.44-.74-12.41,12.43-12.41,24.29,0,48.61.77,72.86-.21,22.63-.92,36.6,14.8,38.31,37,.62,7.92,0,15.95-.08,23.93C5294,295.93,5294.46,333.5,5294,371.05Z"/></svg>